# xmcd
#
# Track frame offsets: 
#        182
#        16697
#        35150
#        50855
#        63527
#        79995
#        98972
#        113387
#        129035
#        145402
#
# Disc length: 2173 seconds
#
# Revision: 2
# Processed by: cddbd v1.5PL3 Copyright (c) Steve Scherf et al.
# Submitted via: ExactAudioCopy v0.95a3
#
DISCID=84087b0a
DTITLE=Billy Dean - Men'll Be Boys
DYEAR=1994
DGENRE=Country
TTITLE0=Cowboy Band
TTITLE1=Wish You Were Here
TTITLE2=I Can't Find The Words To Say Goodbye
TTITLE3=Men Will Be Boys
TTITLE4=Pay Attention
TTITLE5=Starting Over Again
TTITLE6=Love and Bide
TTITLE7=Indian Head Penny
TTITLE8=I Will Be Here
TTITLE9=Misery And Gin
EXTD=
EXTT0=
EXTT1=
EXTT2=
EXTT3=
EXTT4=
EXTT5=
EXTT6=
EXTT7=
EXTT8=
EXTT9=
PLAYORDER=
